<svg xmlns="http://www.w3.org/2000/svg" fill="#333333"  viewBox="0 0 208.833 115.417" class="o-ft-header__logo__ft-initials">
    <path d="M37.753,97.264c0,12.081,3.225,13.439,17.001,13.952v4.421H0v-4.421c11.393-0.513,14.621-1.871,14.621-13.952V18.376c0-12.092-3.229-13.449-14.281-13.954V0h96.58l0.688,25.505h-4.762c-4.083-12.924-8.507-17-31.123-17H44.204c-5.262,0-6.451,1.183-6.451,5.95V51.02h8.628c18.029,0,21.942-3.24,24.15-15.315h4.42V76.52h-4.42c-2.378-13.604-9.184-17.002-24.15-17.002h-8.628V97.264z" />
    <path d="M206.289,0H104.941l-2.354,25.514h5.81c3.713-12.497,9.17-17.008,21.369-17.008h14.284v88.758c0,12.081-3.23,13.439-16.323,13.952v4.421h55.779v-4.421c-13.96-0.513-16.327-1.871-16.327-13.952V8.505h14.278c12.206,0,17.669,4.512,21.373,17.008h5.81L206.289,0z" />
</svg>